<svg xmlns="http://www.w3.org/2000/svg" width="77" height="77" viewBox="0 0 77 77">
    <g fill="none" fill-rule="evenodd" opacity=".575" transform="translate(2 1)">
        <path fill="#9B9B9B" d="M42.092 24.608c-2.034 3.354-6.132 3.25-6.132 3.25s-.685-3.443 1.922-6.502c2.606-3.06 5.772-3.06 5.772-3.06s.472 2.959-1.562 6.312zm4.902 3.318c2.538 1.042 4.067 3.298 4.067 3.298s-4.24 2.16-4.067 7.522c.172 5.361 5.225 7.646 5.225 7.646s-1.937 4.353-3.862 6.891c-1.045 1.38-3.282 3.257-4.903 3.257-1.05 0-2.035-.611-3.147-1.05-.991-.393-1.289-.653-2.695-.729-1.132-.06-2.69.403-3.528.861-.9.492-2.692 1.34-4.467.627-2.02-.811-3.836-2.994-5.315-5.618-2.778-4.93-3.301-9.01-3.353-11.491-.02-.904-.088-4.001 1.829-7.212 1.916-3.21 4.635-4.002 4.635-4.002s2.52-1.127 5.845 0c1.91.648 2.884 1.302 4.126 1.186 1.242-.117 1.85-.654 3.563-1.186 1.668-.518 4.25-.737 6.047 0z"/>
        <ellipse cx="36.86" cy="37.636" stroke="#9B9B9B" stroke-width="2.217" rx="36.86" ry="37.119"/>
    </g>
</svg>
