<svg xmlns="http://www.w3.org/2000/svg" width="77" height="77" viewBox="0 0 77 77">
    <g fill="none" fill-rule="evenodd" opacity=".575" transform="translate(2 1)">
        <ellipse cx="36.86" cy="37.636" stroke="#9B9B9B" stroke-width="2.217" rx="36.86" ry="37.119"/>
        <path fill="#9B9B9B" d="M36.333 56.288c-1.298-.084-2.283-.112-3.267-.211a13.942 13.942 0 0 1-2.009-.339 19.03 19.03 0 0 1-2.597-.776 8.354 8.354 0 0 1-2.638-1.537 5.47 5.47 0 0 1-.875-1.171c-.336-.6-.642-1.216-.916-1.848-.232-.53-.438-1.07-.615-1.622-.382-1.115-.779-2.23-1.134-3.358a47.24 47.24 0 0 1-.766-2.722 122.598 122.598 0 0 1-.93-3.71c-.204-.903-.368-1.82-.519-2.737-.15-.917-.273-1.947-.41-2.906a5.233 5.233 0 0 1-.109-.889 3.066 3.066 0 0 1 1.244-2.553c.6-.46 1.258-.834 1.955-1.115a71.491 71.491 0 0 1 2.255-.79 20.906 20.906 0 0 1 3.745-.804c.41 0 .806-.127 1.203-.211a.37.37 0 0 0 .232-.184c.164-.38.3-.79.465-1.17.287-.65.574-1.299.875-1.947.164-.367.314-.734.505-1.087.342-.606.684-1.227 1.067-1.805.349-.498.733-.97 1.148-1.411a3.45 3.45 0 0 1 1.722-1.03 2.153 2.153 0 0 1 1.545.212 4.47 4.47 0 0 1 1.366 1.128c.467.584.892 1.201 1.272 1.848.236.397.442.812.615 1.242.396.945.779 1.904 1.162 2.821.138.3.252.612.341.931.053.293.3.506.588.508.683.113 1.367.198 2.037.353 1.066.24 2.146.465 3.17.804.889.295 1.749.672 2.57 1.128a4.067 4.067 0 0 1 1.9 1.919c.121.286.195.591.219.903a12.12 12.12 0 0 1-.191 3.117 69.817 69.817 0 0 1-.738 3.358 68.36 68.36 0 0 1-.67 2.539c-.233.832-.56 1.918-.861 2.821-.205.677-.424 1.411-.684 2.003-.474 1.223-.97 2.436-1.49 3.64a15.16 15.16 0 0 1-.847 1.735 11.569 11.569 0 0 1-1.681 2.427 4.09 4.09 0 0 1-1.367.916 13.35 13.35 0 0 1-2.912.89c-.642.098-1.298.239-1.94.324-1.067.183-2.174.282-3.035.366z"/>
        <path fill="#F7F7F7" d="M32.602 26.72c.164-.057.334-.099.505-.126H39.095l.778.14a2.98 2.98 0 0 0-.15-.578c-.315-.592-.67-1.17-.97-1.777a5.256 5.256 0 0 0-1.71-2.003 1.62 1.62 0 0 0-1.366 0c-.287.197-.56.423-.834.649a6.484 6.484 0 0 0-1.367 1.749c-.246.437-.492.874-.724 1.326-.032.22-.05.44-.055.663l-.095-.042zM41.281 27.595l.178.494c.41 1.185.82 2.37 1.216 3.555.033.177.18.307.356.31 2.31.24 4.633.466 6.943.734.466.06.939-.013 1.367-.212a.742.742 0 0 0 .425-.524.765.765 0 0 0-.165-.66 8.256 8.256 0 0 0-2.802-1.849 20.773 20.773 0 0 0-4.1-1.255c-.958-.24-2.12-.367-3.309-.565l-.109-.028z"/>
        <path fill="#F7F7F7" d="M41.254 26.904l.123-.099a1.805 1.805 0 0 0 0-.282c-.26-.677-.479-1.41-.78-2.017-.437-.96-.915-1.89-1.366-2.822a6.188 6.188 0 0 0-1.914-2.327 1.821 1.821 0 0 0-1.736 0 6.26 6.26 0 0 0-2.05 2.384c-.164.31-.369.592-.533.903-.3.578-.615 1.142-.889 1.735-.273.592-.423.987-.628 1.481-.205.494-.246.649-.383.973.314.113.533.085.629-.268.021-.122.058-.24.11-.352.423-.748.833-1.51 1.27-2.243a6.352 6.352 0 0 1 1.955-2.23 2.559 2.559 0 0 1 3.02.198 8.557 8.557 0 0 1 1.367 1.609c.588.959 1.04 2.017 1.572 3.018a1.8 1.8 0 0 0 .328.367l-.095-.028zM31.344 27.595l-1.736.24a25.51 25.51 0 0 0-7.613 2.102c-.608.279-1.14.71-1.545 1.255-.186.392-.186.85 0 1.242.096.127.246.296.383.31a6.53 6.53 0 0 0 1.367 0c1.011-.099 2.023-.24 3.048-.38l4.1-.565a.476.476 0 0 0 .328-.197c.588-1.256 1.19-2.582 1.777-3.993l-.109-.014zM41.8 31.7c-.478-1.241-.956-2.483-1.435-3.71a.396.396 0 0 0-.26-.183 20.976 20.976 0 0 0-5.098-.282c-.86 0-1.708.07-2.57 0-.218 0-.328 0-.41.24-.464 1.156-.929 2.313-1.366 3.47 0 .084 0 .183-.096.31a57.21 57.21 0 0 1 11.331.17L41.8 31.7z"/>
    </g>
</svg>
