<svg xmlns="http://www.w3.org/2000/svg" width="77" height="77" viewBox="0 0 77 77">
    <g fill="none" fill-rule="evenodd" opacity=".575" transform="translate(2 1)">
        <ellipse cx="36.86" cy="37.636" stroke="#9B9B9B" stroke-width="2.217" rx="36.86" ry="37.119"/>
        <path fill="#9B9B9B" d="M27.087 46.797c0 .87.69 1.583 1.536 1.583h1.535v5.541c0 1.315 1.03 2.375 2.304 2.375 1.275 0 2.304-1.06 2.304-2.375V48.38h3.072v5.541c0 1.315 1.029 2.375 2.304 2.375 1.274 0 2.303-1.06 2.303-2.375V48.38h1.536c.845 0 1.536-.712 1.536-1.583V30.964h-18.43v15.833zm-3.84-15.833c-1.275 0-2.304 1.061-2.304 2.375v11.083c0 1.314 1.03 2.375 2.304 2.375 1.275 0 2.304-1.061 2.304-2.375V33.339c0-1.314-1.03-2.375-2.304-2.375zm26.11 0c-1.275 0-2.304 1.061-2.304 2.375v11.083c0 1.314 1.029 2.375 2.304 2.375 1.274 0 2.303-1.061 2.303-2.375V33.339c0-1.314-1.029-2.375-2.303-2.375zm-7.634-9.246l2.005-2.066c.3-.309.3-.808 0-1.116a.749.749 0 0 0-1.083 0l-2.273 2.335a8.93 8.93 0 0 0-4.07-.99 8.932 8.932 0 0 0-4.093.998l-2.28-2.351a.749.749 0 0 0-1.084 0c-.3.309-.3.807 0 1.116l2.012 2.074a9.607 9.607 0 0 0-3.77 7.663h18.43a9.56 9.56 0 0 0-3.794-7.663zm-1.581 4.495a.78.78 0 0 0 .767-.792.78.78 0 0 0-.767-.792.78.78 0 0 0-.768.792.78.78 0 0 0 .768.792zm-7.68 0a.78.78 0 0 0 .768-.792.78.78 0 0 0-.768-.792.78.78 0 0 0-.768.792.78.78 0 0 0 .768.792z"/>
    </g>
</svg>
