<svg xmlns="http://www.w3.org/2000/svg" width="77" height="77" viewBox="0 0 77 77">
    <g fill="none" fill-rule="evenodd" opacity=".575" transform="translate(2 1)">
        <ellipse cx="36.86" cy="37.636" stroke="#9B9B9B" stroke-width="2.217" rx="36.86" ry="37.119"/>
        <g fill="#9B9B9B">
            <path d="M45.067 15.647c.057 4.74-5.131 9.28-9.395 8.145-.067-1.582.6-2.92 1.473-4.156 1.552-2.197 3.704-3.42 6.321-3.834.157-.024.306-.102.459-.155h1.142zM28.928 28.923c4.465-2.352 8.9-2.39 13.402-1.261 1.68.421 3.311 1.056 4.946 1.646.275.1.607.434.659.71.967 5.094.705 10.045-1.799 14.706-.037.07-.091.13-.207.29-.01-.18-.034-.268-.016-.346.948-4.272-.404-7.743-3.544-10.618-3.558-3.258-7.72-4.948-12.505-5.076-.241-.007-.482-.026-.936-.05"/>
            <path d="M33.754 52.692c1.978.36 3.718.288 5.432-.289 1.963-.66 3.594-1.796 4.883-3.433 2.246-2.851 4.091-5.913 4.689-9.59.206-1.268.314-2.554.481-3.948.83 1.309 1.213 2.704 1.502 4.112.743 3.623.322 7.189-.688 10.698-.357 1.241-.813 2.454-1.267 3.663-.091.242-.35.543-.577.591-4.839 1.028-9.555.76-14.066-1.473-.069-.034-.12-.1-.389-.33M37.51 31.813c-.754 0-1.509-.035-2.26.006-2.708.148-4.994 1.278-6.836 3.262-2.678 2.884-4.641 6.182-5.31 10.153-.203 1.213-.307 2.443-.472 3.8-.895-1.6-1.28-3.249-1.51-4.926-.63-4.63.481-8.982 2.171-13.224.092-.23.39-.476.633-.53 4.676-1.038 9.222-.692 13.583 1.459"/>
            <path d="M42.014 55.988a14.316 14.316 0 0 1-5.302 1.495c-4.247.347-8.244-.684-12.13-2.3-.212-.088-.46-.345-.502-.561-.932-4.883-.752-9.65 1.523-14.18.02-.042.074-.069.169-.153 0 .217.02.388-.003.553-.468 3.291.44 6.15 2.6 8.628 3.625 4.16 8.246 6.14 13.645 6.518"/>
        </g>
    </g>
</svg>
